<svg xmlns="http://www.w3.org/2000/svg" version="1.1" xmlns:xlink="http://www.w3.org/1999/xlink" xmlns:svgjs="http://svgjs.dev/svgjs" width="2000" height="1247" viewBox="0 0 2000 1247"><g transform="matrix(1,0,0,1,-1.2121212121212466,0.504858299595071)"><svg viewBox="0 0 396 247" data-background-color="#111111" preserveAspectRatio="xMidYMid meet" height="1247" width="2000" xmlns="http://www.w3.org/2000/svg" xmlns:xlink="http://www.w3.org/1999/xlink"><g id="tight-bounds" transform="matrix(1,0,0,1,0.2400000000000091,-0.09999999999999432)"><svg viewBox="0 0 395.52 247.2" height="247.2" width="395.52"><g><svg></svg></g><g><svg viewBox="0 0 395.52 247.2" height="247.2" width="395.52"><g><path d="M55.039 247.2l39.764-68.874 205.914 0 39.764 68.874zM197.76 0l39.764 68.874-79.528 0z" fill="#ffffff" fill-rule="nonzero" stroke="none" stroke-width="1" stroke-linecap="butt" stroke-linejoin="miter" stroke-miterlimit="10" stroke-dasharray="" stroke-dashoffset="0" font-family="none" font-weight="none" font-size="none" text-anchor="none" style="mix-blend-mode: normal" data-fill-palette-color="tertiary"></path></g><g transform="matrix(1,0,0,1,0,84.50989909876634)"><svg viewBox="0 0 395.52 78.1802018024673" height="78.1802018024673" width="395.52"><g><svg viewBox="0 0 525.9327090433561 103.95814453764133" height="78.1802018024673" width="395.52"><g><rect width="4.310171975593977" height="103.95814453764133" x="114.81936435678313" y="0" fill="#ffffff" opacity="1" stroke-width="0" stroke="transparent" fill-opacity="1" class="rect-s$-0" data-fill-palette-color="primary" rx="1%" id="s$-0" data-palette-color="#ffffff"></rect></g><g transform="matrix(1,0,0,1,130.4127090433561,0.25860234959611716)"><svg viewBox="0 0 395.52 103.4409398384491" height="103.4409398384491" width="395.52"><g id="textblocktransform"><svg viewBox="0 0 395.52 103.4409398384491" height="103.4409398384491" width="395.52" id="textblock"><g><svg viewBox="0 0 395.52 103.4409398384491" height="103.4409398384491" width="395.52"><g transform="matrix(1,0,0,1,0,0)"><svg width="395.52" viewBox="2.200000000000002 -36.04 302.90000000000003 76.05000000000001" height="103.4409398384491" data-palette-color="#ffffff"><svg></svg><svg></svg><g class="undefined-text-0" data-fill-palette-color="primary" id="text-0"><path d="M19.78-11.84h7.17c-0.18 4.053-1.317 7.12-3.41 9.2-2.1 2.087-5.063 3.13-8.89 3.13v0c-4.02 0-7.1-1.323-9.24-3.97-2.14-2.647-3.21-6.417-3.21-11.31v0-5.99c0-4.88 1.107-8.643 3.32-11.29 2.213-2.647 5.29-3.97 9.23-3.97v0c3.873 0 6.813 1.083 8.82 3.25 2.013 2.167 3.157 5.277 3.43 9.33v0h-7.2c-0.067-2.507-0.453-4.237-1.16-5.19-0.707-0.953-2.003-1.43-3.89-1.43v0c-1.92 0-3.28 0.673-4.08 2.02-0.8 1.34-1.223 3.547-1.27 6.62v0 6.72c0 3.533 0.393 5.957 1.18 7.27 0.793 1.32 2.15 1.98 4.07 1.98v0c1.887 0 3.187-0.46 3.9-1.38 0.72-0.92 1.13-2.583 1.23-4.99zM50.24 0l-1.9-7.28h-9.79l-1.9 7.28h-7.6l11.11-35.55h6.57l11.18 35.55zM43.43-25.93l-3.32 12.67h6.64zM76.25-9.33v0c0-1.447-0.373-2.54-1.12-3.28-0.74-0.74-2.087-1.51-4.04-2.31v0c-3.56-1.347-6.123-2.93-7.69-4.75-1.56-1.813-2.34-3.957-2.34-6.43v0c0-2.993 1.063-5.397 3.19-7.21 2.12-1.82 4.817-2.73 8.09-2.73v0c2.18 0 4.123 0.46 5.83 1.38 1.713 0.92 3.03 2.22 3.95 3.9 0.92 1.673 1.38 3.577 1.38 5.71v0h-7.16c0-1.66-0.353-2.927-1.06-3.8-0.707-0.867-1.727-1.3-3.06-1.3v0c-1.253 0-2.23 0.37-2.93 1.11-0.7 0.74-1.05 1.737-1.05 2.99v0c0 0.98 0.39 1.863 1.17 2.65 0.78 0.787 2.163 1.603 4.15 2.45v0c3.467 1.253 5.987 2.793 7.56 4.62 1.567 1.82 2.35 4.137 2.35 6.95v0c0 3.093-0.983 5.513-2.95 7.26-1.973 1.74-4.65 2.61-8.03 2.61v0c-2.3 0-4.393-0.473-6.28-1.42-1.887-0.94-3.363-2.29-4.43-4.05-1.067-1.76-1.6-3.837-1.6-6.23v0h7.2c0 2.053 0.4 3.543 1.2 4.47 0.8 0.927 2.103 1.39 3.91 1.39v0c2.507 0 3.76-1.327 3.76-3.98zM107.1 0l-1.9-7.28h-9.79l-1.9 7.28h-7.6l11.11-35.55h6.57l11.18 35.55zM100.29-25.93l-3.32 12.67h6.64zM138.82 0h-9.21v-35.55h9.4c4.153 0 7.463 1.32 9.93 3.96 2.467 2.633 3.723 6.247 3.77 10.84v0 5.76c0 4.673-1.233 8.34-3.7 11-2.467 2.66-5.863 3.99-10.19 3.99zM139.4-29.57h-2.61v23.61h2.15c2.393 0 4.077-0.63 5.05-1.89 0.98-1.26 1.493-3.437 1.54-6.53v0-6.18c0-3.32-0.463-5.633-1.39-6.94-0.927-1.313-2.507-2.003-4.74-2.07zM176.22 0l-1.9-7.28h-9.79l-1.91 7.28h-7.59l11.11-35.55h6.57l11.18 35.55zM169.41-25.93l-3.32 12.67h6.64zM202.22-9.33v0c0-1.447-0.37-2.54-1.11-3.28-0.74-0.74-2.087-1.51-4.04-2.31v0c-3.567-1.347-6.13-2.93-7.69-4.75-1.56-1.813-2.34-3.957-2.34-6.43v0c0-2.993 1.06-5.397 3.18-7.21 2.127-1.82 4.827-2.73 8.1-2.73v0c2.18 0 4.123 0.46 5.83 1.38 1.707 0.92 3.02 2.22 3.94 3.9 0.92 1.673 1.38 3.577 1.38 5.71v0h-7.15c0-1.66-0.353-2.927-1.06-3.8-0.707-0.867-1.73-1.3-3.07-1.3v0c-1.253 0-2.23 0.37-2.93 1.11-0.7 0.74-1.05 1.737-1.05 2.99v0c0 0.98 0.393 1.863 1.18 2.65 0.78 0.787 2.163 1.603 4.15 2.45v0c3.467 1.253 5.983 2.793 7.55 4.62 1.573 1.82 2.36 4.137 2.36 6.95v0c0 3.093-0.987 5.513-2.96 7.26-1.967 1.74-4.643 2.61-8.03 2.61v0c-2.293 0-4.383-0.473-6.27-1.42-1.887-0.94-3.363-2.29-4.43-4.05-1.067-1.76-1.6-3.837-1.6-6.23v0h7.2c0 2.053 0.4 3.543 1.2 4.47 0.793 0.927 2.093 1.39 3.9 1.39v0c2.507 0 3.76-1.327 3.76-3.98z" fill="#ffffff" fill-rule="nonzero" stroke="none" stroke-width="1" stroke-linecap="butt" stroke-linejoin="miter" stroke-miterlimit="10" stroke-dasharray="" stroke-dashoffset="0" font-family="none" font-weight="none" font-size="none" text-anchor="none" style="mix-blend-mode: normal" data-fill-palette-color="primary" opacity="1"></path><path transform="translate(0,39.52)" d="M21.19-20.46v5.96h-11.16v14.5h-7.17v-35.55h19.67v5.98h-12.5v9.11zM45-21.17v5.79h-11.19v9.42h13.24v5.96h-20.41v-35.55h20.36v5.98h-13.19v8.4zM67.29 0l-5.35-12.99h-3.57v12.99h-7.17v-35.55h11.45c3.593 0 6.37 0.933 8.33 2.8 1.967 1.86 2.95 4.51 2.95 7.95v0c0 4.72-1.72 8.023-5.16 9.91v0l6.23 14.55v0.34zM58.37-29.57v10.6h4.08c1.433 0 2.507-0.477 3.22-1.43 0.72-0.953 1.08-2.227 1.08-3.82v0c0-3.567-1.393-5.35-4.18-5.35v0zM94.97 0l-5.35-12.99h-3.56v12.99h-7.18v-35.55h11.45c3.6 0 6.38 0.933 8.34 2.8 1.96 1.86 2.94 4.51 2.94 7.95v0c0 4.72-1.717 8.023-5.15 9.91v0l6.23 14.55v0.34zM86.06-29.57v10.6h4.08c1.433 0 2.507-0.477 3.22-1.43 0.713-0.953 1.07-2.227 1.07-3.82v0c0-3.567-1.39-5.35-4.17-5.35v0zM125.42 0l-1.91-7.28h-9.79l-1.9 7.28h-7.6l11.11-35.55h6.57l11.18 35.55zM118.6-25.93l-3.32 12.67h6.64zM136.4-35.55h9.38l6.71 25.71 6.69-25.71h9.37v35.55h-7.2v-9.62l0.66-14.82-7.1 24.44h-4.89l-7.1-24.44 0.66 14.82v9.62h-7.18zM192.68-21.17v5.79h-11.19v9.42h13.24v5.96h-20.41v-35.55h20.36v5.98h-13.19v8.4zM223.71-35.55v35.55h-7.18l-10.5-23.32v23.32h-7.18v-35.55h7.18l10.52 23.34v-23.34zM251.78-35.55v5.98h-8.79v29.57h-7.2v-29.57h-8.64v-5.98zM271.85 0l-1.9-7.28h-9.79l-1.91 7.28h-7.59l11.11-35.55h6.56l11.19 35.55zM265.04-25.93l-3.32 12.67h6.64zM297.85-9.33v0c0-1.447-0.37-2.54-1.11-3.28-0.74-0.74-2.087-1.51-4.04-2.31v0c-3.567-1.347-6.13-2.93-7.69-4.75-1.56-1.813-2.34-3.957-2.34-6.43v0c0-2.993 1.06-5.397 3.18-7.21 2.127-1.82 4.827-2.73 8.1-2.73v0c2.18 0 4.123 0.46 5.83 1.38 1.707 0.92 3.02 2.22 3.94 3.9 0.92 1.673 1.38 3.577 1.38 5.71v0h-7.15c0-1.66-0.353-2.927-1.06-3.8-0.707-0.867-1.73-1.3-3.07-1.3v0c-1.253 0-2.23 0.37-2.93 1.11-0.7 0.74-1.05 1.737-1.05 2.99v0c0 0.98 0.393 1.863 1.18 2.65 0.78 0.787 2.163 1.603 4.15 2.45v0c3.467 1.253 5.983 2.793 7.55 4.62 1.573 1.82 2.36 4.137 2.36 6.95v0c0 3.093-0.987 5.513-2.96 7.26-1.967 1.74-4.643 2.61-8.03 2.61v0c-2.293 0-4.383-0.473-6.27-1.42-1.887-0.94-3.363-2.29-4.43-4.05-1.067-1.76-1.6-3.837-1.6-6.23v0h7.2c0 2.053 0.4 3.543 1.2 4.47 0.793 0.927 2.093 1.39 3.9 1.39v0c2.507 0 3.76-1.327 3.76-3.98z" fill="#ffffff" fill-rule="nonzero" stroke="none" stroke-width="1" stroke-linecap="butt" stroke-linejoin="miter" stroke-miterlimit="10" stroke-dasharray="" stroke-dashoffset="0" font-family="none" font-weight="none" font-size="none" text-anchor="none" style="mix-blend-mode: normal" data-fill-palette-color="primary" opacity="1"></path></g></svg></g></svg></g></svg></g></svg></g><g transform="matrix(1,0,0,1,0,0.25860234959611716)"><svg viewBox="0 0 103.53619164580412 103.4409398384491" height="103.4409398384491" width="103.53619164580412"><g><svg xmlns="http://www.w3.org/2000/svg" xmlns:xlink="http://www.w3.org/1999/xlink" version="1.1" x="0" y="0" viewBox="17.565250000000002 12.853000000000005 50.80373870900118 50.75699999999999" enable-background="new 0 0 80 80" xml:space="preserve" height="103.4409398384491" width="103.53619164580412" class="icon-icon-0" data-fill-palette-color="accent" id="icon-0"><g fill="#ffffff" data-fill-palette-color="accent"><path fill="#ffffff" d="M24.562 63.61c-1.87 0-3.628-0.728-4.95-2.05-2.729-2.73-2.729-7.17 0-9.9l14.116-14.116c-2.121-5.344-1.598-11.506 1.467-16.403 3.246-5.19 9.01-8.288 15.419-8.288 0.206 0 0.413 0.003 0.618 0.01 1.202 0.039 2.265 0.786 2.707 1.904 0.442 1.117 0.18 2.387-0.669 3.236l-8.178 8.176c-0.403 0.403-0.403 1.061 0.001 1.465l8.435 8.435c0.391 0.391 1.074 0.391 1.465 0l8.213-8.213c0.569-0.569 1.321-0.883 2.119-0.883 1.606 0 2.933 1.258 3.019 2.864 0.269 5.092-1.644 10.078-5.246 13.68-3.397 3.398-7.916 5.27-12.723 5.27 0 0 0 0-0.001 0-2.319 0-4.636-0.454-6.777-1.321L29.512 61.56C28.19 62.882 26.433 63.61 24.562 63.61zM48.637 16.979c-4.207 0.542-7.875 2.805-10.051 6.283-2.591 4.142-2.852 9.445-0.681 13.84l0.636 1.286-16.101 16.1c-1.169 1.17-1.169 3.073 0 4.243 1.133 1.132 3.11 1.133 4.243 0L42.77 42.646l1.292 0.652c1.941 0.98 4.125 1.498 6.313 1.498 3.738 0 7.252-1.455 9.895-4.098 2.231-2.231 3.629-5.146 4-8.24l-6.448 6.448c-0.951 0.951-2.216 1.475-3.561 1.475s-2.609-0.523-3.561-1.474l-8.436-8.436c-1.962-1.963-1.962-5.157-0.001-7.12L48.637 16.979z" data-fill-palette-color="accent"></path></g></svg></g></svg></g></svg></g></svg></g></svg></g><defs></defs></svg><rect width="395.52" height="247.2" fill="none" stroke="none" visibility="hidden"></rect></g></svg></g></svg>